<?xml version="1.0" encoding="us-ascii" standalone="no"?><svg xmlns="http://www.w3.org/2000/svg" xmlns:xlink="http://www.w3.org/1999/xlink" contentStyleType="text/css" height="383px" preserveAspectRatio="none" style="width:857px;height:383px;background:#FFFFFF;" version="1.1" viewBox="0 0 857 383" width="857px" zoomAndPan="magnify"><defs/><g><!--cluster HopFrame--><g id="cluster_HopFrame"><path d="M8.5,6.0137 L81.5,6.0137 A3.75,3.75 0 0 1 84,8.5137 L91,30.6348 L847.5,30.6348 A2.5,2.5 0 0 1 850,33.1348 L850,373.5137 A2.5,2.5 0 0 1 847.5,376.0137 L8.5,376.0137 A2.5,2.5 0 0 1 6,373.5137 L6,8.5137 A2.5,2.5 0 0 1 8.5,6.0137 " fill="none" style="stroke:#000000;stroke-width:1.5;"/><line style="stroke:#000000;stroke-width:1.5;" x1="6" x2="91" y1="30.6348" y2="30.6348"/><text fill="#000000" font-family="sans-serif" font-size="14" font-weight="bold" lengthAdjust="spacing" textLength="72" x="10" y="23.1211">HopFrame</text></g><!--cluster Security--><g id="cluster_Security"><path d="M497.5,51.0137 L555.5,51.0137 A3.75,3.75 0 0 1 558,53.5137 L565,75.6348 L823.5,75.6348 A2.5,2.5 0 0 1 826,78.1348 L826,205.5137 A2.5,2.5 0 0 1 823.5,208.0137 L497.5,208.0137 A2.5,2.5 0 0 1 495,205.5137 L495,53.5137 A2.5,2.5 0 0 1 497.5,51.0137 " fill="none" style="stroke:#000000;stroke-width:1.5;"/><line style="stroke:#000000;stroke-width:1.5;" x1="495" x2="565" y1="75.6348" y2="75.6348"/><text fill="#000000" font-family="sans-serif" font-size="14" font-weight="bold" lengthAdjust="spacing" textLength="57" x="499" y="68.1211">Security</text></g><!--cluster Web--><g id="cluster_Web"><path d="M468.5,232.0137 L500.5,232.0137 A3.75,3.75 0 0 1 503,234.5137 L510,256.6348 L687.5,256.6348 A2.5,2.5 0 0 1 690,259.1348 L690,349.5137 A2.5,2.5 0 0 1 687.5,352.0137 L468.5,352.0137 A2.5,2.5 0 0 1 466,349.5137 L466,234.5137 A2.5,2.5 0 0 1 468.5,232.0137 " fill="none" style="stroke:#000000;stroke-width:1.5;"/><line style="stroke:#000000;stroke-width:1.5;" x1="466" x2="510" y1="256.6348" y2="256.6348"/><text fill="#000000" font-family="sans-serif" font-size="14" font-weight="bold" lengthAdjust="spacing" textLength="31" x="470" y="249.1211">Web</text></g><!--cluster Api--><g id="cluster_Api"><path d="M32.5,69.5137 L55.5,69.5137 A3.75,3.75 0 0 1 58,72.0137 L65,94.1348 L468.5,94.1348 A2.5,2.5 0 0 1 471,96.6348 L471,187.0137 A2.5,2.5 0 0 1 468.5,189.5137 L32.5,189.5137 A2.5,2.5 0 0 1 30,187.0137 L30,72.0137 A2.5,2.5 0 0 1 32.5,69.5137 " fill="none" style="stroke:#000000;stroke-width:1.5;"/><line style="stroke:#000000;stroke-width:1.5;" x1="30" x2="65" y1="94.1348" y2="94.1348"/><text fill="#000000" font-family="sans-serif" font-size="14" font-weight="bold" lengthAdjust="spacing" textLength="22" x="34" y="86.6211">Api</text></g><!--class UserLogin--><g id="elem_UserLogin"><rect codeLine="3" fill="#F1F1F1" height="85.2422" id="UserLogin" rx="2.5" ry="2.5" style="stroke:#181818;stroke-width:0.5;" width="130" x="680" y="97.5137"/><ellipse cx="710.3" cy="113.5137" fill="#ADD1B2" rx="11" ry="11" style="stroke:#181818;stroke-width:1.0;"/><path d="M713.0656,109.3887 Q713.2219,109.1699 713.4094,109.0605 Q713.5969,108.9512 713.8156,108.9512 Q714.1906,108.9512 714.425,109.2168 Q714.6594,109.4668 714.6594,110.0762 L714.6594,111.5293 Q714.6594,112.1387 714.425,112.4043 Q714.1906,112.6699 713.8156,112.6699 Q713.4719,112.6699 713.2688,112.4668 Q713.0656,112.2793 712.9563,111.7637 Q712.9094,111.4043 712.7219,111.2168 Q712.3938,110.8418 711.7844,110.623 Q711.175,110.4043 710.55,110.4043 Q709.7844,110.4043 709.1438,110.7324 Q708.5188,111.0605 708.0188,111.8105 Q707.5344,112.5605 707.5344,113.5918 L707.5344,114.6855 Q707.5344,115.9199 708.425,116.748 Q709.3156,117.5605 710.9094,117.5605 Q711.8469,117.5605 712.5031,117.3105 Q712.8938,117.1543 713.3156,116.7168 Q713.5813,116.4512 713.7219,116.373 Q713.8781,116.2949 714.0813,116.2949 Q714.4094,116.2949 714.6594,116.5605 Q714.925,116.8105 714.925,117.1543 Q714.925,117.498 714.5813,117.9043 Q714.0813,118.4824 713.2844,118.8105 Q712.2063,119.2637 710.9094,119.2637 Q709.3938,119.2637 708.1906,118.6387 Q707.2063,118.1387 706.5188,117.0762 Q705.8313,115.998 705.8313,114.7168 L705.8313,113.5605 Q705.8313,112.2324 706.4406,111.0918 Q707.0656,109.9355 708.1594,109.3262 Q709.2531,108.7012 710.4875,108.7012 Q711.2219,108.7012 711.8625,108.873 Q712.5188,109.0293 713.0656,109.3887 Z " fill="#000000"/><text fill="#000000" font-family="sans-serif" font-size="14" lengthAdjust="spacing" textLength="64" x="727.7" y="119.3105">UserLogin</text><line style="stroke:#181818;stroke-width:0.5;" x1="681" x2="809" y1="129.5137" y2="129.5137"/><ellipse cx="691" cy="144.3242" fill="none" rx="3" ry="3" style="stroke:#038048;stroke-width:1.0;"/><text fill="#000000" font-family="sans-serif" font-size="14" lengthAdjust="spacing" textLength="77" x="700" y="148.6211">Email: string</text><ellipse cx="691" cy="162.9453" fill="none" rx="3" ry="3" style="stroke:#038048;stroke-width:1.0;"/><text fill="#000000" font-family="sans-serif" font-size="14" lengthAdjust="spacing" textLength="104" x="700" y="167.2422">Password: string</text><line style="stroke:#181818;stroke-width:0.5;" x1="681" x2="809" y1="174.7559" y2="174.7559"/></g><!--class UserRegister--><g id="elem_UserRegister"><rect codeLine="8" fill="#F1F1F1" height="103.8633" id="UserRegister" rx="2.5" ry="2.5" style="stroke:#181818;stroke-width:0.5;" width="133" x="511.5" y="88.0137"/><ellipse cx="535.05" cy="104.0137" fill="#ADD1B2" rx="11" ry="11" style="stroke:#181818;stroke-width:1.0;"/><path d="M537.8156,99.8887 Q537.9719,99.6699 538.1594,99.5605 Q538.3469,99.4512 538.5656,99.4512 Q538.9406,99.4512 539.175,99.7168 Q539.4094,99.9668 539.4094,100.5762 L539.4094,102.0293 Q539.4094,102.6387 539.175,102.9043 Q538.9406,103.1699 538.5656,103.1699 Q538.2219,103.1699 538.0188,102.9668 Q537.8156,102.7793 537.7063,102.2637 Q537.6594,101.9043 537.4719,101.7168 Q537.1438,101.3418 536.5344,101.123 Q535.925,100.9043 535.3,100.9043 Q534.5344,100.9043 533.8938,101.2324 Q533.2688,101.5605 532.7688,102.3105 Q532.2844,103.0605 532.2844,104.0918 L532.2844,105.1855 Q532.2844,106.4199 533.175,107.248 Q534.0656,108.0605 535.6594,108.0605 Q536.5969,108.0605 537.2531,107.8105 Q537.6438,107.6543 538.0656,107.2168 Q538.3313,106.9512 538.4719,106.873 Q538.6281,106.7949 538.8313,106.7949 Q539.1594,106.7949 539.4094,107.0605 Q539.675,107.3105 539.675,107.6543 Q539.675,107.998 539.3313,108.4043 Q538.8313,108.9824 538.0344,109.3105 Q536.9563,109.7637 535.6594,109.7637 Q534.1438,109.7637 532.9406,109.1387 Q531.9563,108.6387 531.2688,107.5762 Q530.5813,106.498 530.5813,105.2168 L530.5813,104.0605 Q530.5813,102.7324 531.1906,101.5918 Q531.8156,100.4355 532.9094,99.8262 Q534.0031,99.2012 535.2375,99.2012 Q535.9719,99.2012 536.6125,99.373 Q537.2688,99.5293 537.8156,99.8887 Z " fill="#000000"/><text fill="#000000" font-family="sans-serif" font-size="14" lengthAdjust="spacing" textLength="82" x="550.95" y="109.8105">UserRegister</text><line style="stroke:#181818;stroke-width:0.5;" x1="512.5" x2="643.5" y1="120.0137" y2="120.0137"/><ellipse cx="522.5" cy="134.8242" fill="none" rx="3" ry="3" style="stroke:#038048;stroke-width:1.0;"/><text fill="#000000" font-family="sans-serif" font-size="14" lengthAdjust="spacing" textLength="107" x="531.5" y="139.1211">Username: string</text><ellipse cx="522.5" cy="153.4453" fill="none" rx="3" ry="3" style="stroke:#038048;stroke-width:1.0;"/><text fill="#000000" font-family="sans-serif" font-size="14" lengthAdjust="spacing" textLength="77" x="531.5" y="157.7422">Email: string</text><ellipse cx="522.5" cy="172.0664" fill="none" rx="3" ry="3" style="stroke:#038048;stroke-width:1.0;"/><text fill="#000000" font-family="sans-serif" font-size="14" lengthAdjust="spacing" textLength="104" x="531.5" y="176.3633">Password: string</text><line style="stroke:#181818;stroke-width:0.5;" x1="512.5" x2="643.5" y1="183.877" y2="183.877"/></g><!--class RegisterData--><g id="elem_RegisterData"><rect codeLine="16" fill="#F1F1F1" height="66.6211" id="RegisterData" rx="2.5" ry="2.5" style="stroke:#181818;stroke-width:0.5;" width="192" x="482" y="269.0137"/><ellipse cx="532.25" cy="285.0137" fill="#ADD1B2" rx="11" ry="11" style="stroke:#181818;stroke-width:1.0;"/><path d="M535.0156,280.8887 Q535.1719,280.6699 535.3594,280.5605 Q535.5469,280.4512 535.7656,280.4512 Q536.1406,280.4512 536.375,280.7168 Q536.6094,280.9668 536.6094,281.5762 L536.6094,283.0293 Q536.6094,283.6387 536.375,283.9043 Q536.1406,284.1699 535.7656,284.1699 Q535.4219,284.1699 535.2188,283.9668 Q535.0156,283.7793 534.9063,283.2637 Q534.8594,282.9043 534.6719,282.7168 Q534.3438,282.3418 533.7344,282.123 Q533.125,281.9043 532.5,281.9043 Q531.7344,281.9043 531.0938,282.2324 Q530.4688,282.5605 529.9688,283.3105 Q529.4844,284.0605 529.4844,285.0918 L529.4844,286.1855 Q529.4844,287.4199 530.375,288.248 Q531.2656,289.0605 532.8594,289.0605 Q533.7969,289.0605 534.4531,288.8105 Q534.8438,288.6543 535.2656,288.2168 Q535.5313,287.9512 535.6719,287.873 Q535.8281,287.7949 536.0313,287.7949 Q536.3594,287.7949 536.6094,288.0605 Q536.875,288.3105 536.875,288.6543 Q536.875,288.998 536.5313,289.4043 Q536.0313,289.9824 535.2344,290.3105 Q534.1563,290.7637 532.8594,290.7637 Q531.3438,290.7637 530.1406,290.1387 Q529.1563,289.6387 528.4688,288.5762 Q527.7813,287.498 527.7813,286.2168 L527.7813,285.0605 Q527.7813,283.7324 528.3906,282.5918 Q529.0156,281.4355 530.1094,280.8262 Q531.2031,280.2012 532.4375,280.2012 Q533.1719,280.2012 533.8125,280.373 Q534.4688,280.5293 535.0156,280.8887 Z " fill="#000000"/><text fill="#000000" font-family="sans-serif" font-size="14" lengthAdjust="spacing" textLength="83" x="552.75" y="290.8105">RegisterData</text><line style="stroke:#181818;stroke-width:0.5;" x1="483" x2="673" y1="301.0137" y2="301.0137"/><ellipse cx="493" cy="315.8242" fill="none" rx="3" ry="3" style="stroke:#038048;stroke-width:1.0;"/><text fill="#000000" font-family="sans-serif" font-size="14" lengthAdjust="spacing" textLength="166" x="502" y="320.1211">RepeatedPassword: string</text><line style="stroke:#181818;stroke-width:0.5;" x1="483" x2="673" y1="327.6348" y2="327.6348"/></g><!--class SingleValueResult--><g id="elem_SingleValueResult"><rect codeLine="22" fill="#F1F1F1" height="66.6211" id="SingleValueResult" rx="2.5" ry="2.5" style="stroke:#181818;stroke-width:0.5;" width="190" x="265" y="106.5137"/><ellipse cx="280" cy="122.5137" fill="#ADD1B2" rx="11" ry="11" style="stroke:#181818;stroke-width:1.0;"/><path d="M282.7656,118.3887 Q282.9219,118.1699 283.1094,118.0605 Q283.2969,117.9512 283.5156,117.9512 Q283.8906,117.9512 284.125,118.2168 Q284.3594,118.4668 284.3594,119.0762 L284.3594,120.5293 Q284.3594,121.1387 284.125,121.4043 Q283.8906,121.6699 283.5156,121.6699 Q283.1719,121.6699 282.9688,121.4668 Q282.7656,121.2793 282.6563,120.7637 Q282.6094,120.4043 282.4219,120.2168 Q282.0938,119.8418 281.4844,119.623 Q280.875,119.4043 280.25,119.4043 Q279.4844,119.4043 278.8438,119.7324 Q278.2188,120.0605 277.7188,120.8105 Q277.2344,121.5605 277.2344,122.5918 L277.2344,123.6855 Q277.2344,124.9199 278.125,125.748 Q279.0156,126.5605 280.6094,126.5605 Q281.5469,126.5605 282.2031,126.3105 Q282.5938,126.1543 283.0156,125.7168 Q283.2813,125.4512 283.4219,125.373 Q283.5781,125.2949 283.7813,125.2949 Q284.1094,125.2949 284.3594,125.5605 Q284.625,125.8105 284.625,126.1543 Q284.625,126.498 284.2813,126.9043 Q283.7813,127.4824 282.9844,127.8105 Q281.9063,128.2637 280.6094,128.2637 Q279.0938,128.2637 277.8906,127.6387 Q276.9063,127.1387 276.2188,126.0762 Q275.5313,124.998 275.5313,123.7168 L275.5313,122.5605 Q275.5313,121.2324 276.1406,120.0918 Q276.7656,118.9355 277.8594,118.3262 Q278.9531,117.7012 280.1875,117.7012 Q280.9219,117.7012 281.5625,117.873 Q282.2188,118.0293 282.7656,118.3887 Z " fill="#000000"/><text fill="#000000" font-family="sans-serif" font-size="14" lengthAdjust="spacing" textLength="115" x="294" y="128.3105">SingleValueResult</text><rect fill="#FFFFFF" height="17.9609" style="stroke:#181818;stroke-width:1.0;stroke-dasharray:2.0,2.0;" width="41" x="417" y="103.5137"/><text fill="#000000" font-family="sans-serif" font-size="12" font-style="italic" lengthAdjust="spacing" textLength="39" x="418" y="117.4629">TValue</text><line style="stroke:#181818;stroke-width:0.5;" x1="266" x2="454" y1="138.5137" y2="138.5137"/><ellipse cx="276" cy="153.3242" fill="none" rx="3" ry="3" style="stroke:#038048;stroke-width:1.0;"/><text fill="#000000" font-family="sans-serif" font-size="14" lengthAdjust="spacing" textLength="89" x="285" y="157.6211">Value: TValue</text><line style="stroke:#181818;stroke-width:0.5;" x1="266" x2="454" y1="165.1348" y2="165.1348"/></g><!--class UserPasswordValidation--><g id="elem_UserPasswordValidation"><rect codeLine="26" fill="#F1F1F1" height="66.6211" id="UserPasswordValidation" rx="2.5" ry="2.5" style="stroke:#181818;stroke-width:0.5;" width="184" x="46" y="106.5137"/><ellipse cx="61" cy="122.5137" fill="#ADD1B2" rx="11" ry="11" style="stroke:#181818;stroke-width:1.0;"/><path d="M63.7656,118.3887 Q63.9219,118.1699 64.1094,118.0605 Q64.2969,117.9512 64.5156,117.9512 Q64.8906,117.9512 65.125,118.2168 Q65.3594,118.4668 65.3594,119.0762 L65.3594,120.5293 Q65.3594,121.1387 65.125,121.4043 Q64.8906,121.6699 64.5156,121.6699 Q64.1719,121.6699 63.9688,121.4668 Q63.7656,121.2793 63.6563,120.7637 Q63.6094,120.4043 63.4219,120.2168 Q63.0938,119.8418 62.4844,119.623 Q61.875,119.4043 61.25,119.4043 Q60.4844,119.4043 59.8438,119.7324 Q59.2188,120.0605 58.7188,120.8105 Q58.2344,121.5605 58.2344,122.5918 L58.2344,123.6855 Q58.2344,124.9199 59.125,125.748 Q60.0156,126.5605 61.6094,126.5605 Q62.5469,126.5605 63.2031,126.3105 Q63.5938,126.1543 64.0156,125.7168 Q64.2813,125.4512 64.4219,125.373 Q64.5781,125.2949 64.7813,125.2949 Q65.1094,125.2949 65.3594,125.5605 Q65.625,125.8105 65.625,126.1543 Q65.625,126.498 65.2813,126.9043 Q64.7813,127.4824 63.9844,127.8105 Q62.9063,128.2637 61.6094,128.2637 Q60.0938,128.2637 58.8906,127.6387 Q57.9063,127.1387 57.2188,126.0762 Q56.5313,124.998 56.5313,123.7168 L56.5313,122.5605 Q56.5313,121.2324 57.1406,120.0918 Q57.7656,118.9355 58.8594,118.3262 Q59.9531,117.7012 61.1875,117.7012 Q61.9219,117.7012 62.5625,117.873 Q63.2188,118.0293 63.7656,118.3887 Z " fill="#000000"/><text fill="#000000" font-family="sans-serif" font-size="14" lengthAdjust="spacing" textLength="152" x="75" y="128.3105">UserPasswordValidation</text><line style="stroke:#181818;stroke-width:0.5;" x1="47" x2="229" y1="138.5137" y2="138.5137"/><ellipse cx="57" cy="153.3242" fill="none" rx="3" ry="3" style="stroke:#038048;stroke-width:1.0;"/><text fill="#000000" font-family="sans-serif" font-size="14" lengthAdjust="spacing" textLength="104" x="66" y="157.6211">Password: string</text><line style="stroke:#181818;stroke-width:0.5;" x1="47" x2="229" y1="165.1348" y2="165.1348"/></g><!--reverse link UserRegister to RegisterData--><g id="link_UserRegister_RegisterData"><path codeLine="31" d="M578,210.2337 C578,235.3737 578,246.9037 578,268.9237 " fill="none" id="UserRegister-backto-RegisterData" style="stroke:#181818;stroke-width:1.0;"/><polygon fill="none" points="578,192.2337,572,210.2337,584,210.2337,578,192.2337" style="stroke:#181818;stroke-width:1.0;"/></g><!--SRC=[bL5D2y8m3BttL_GkymUC8GWg7Zp8viSvRc44khQq7IAw_sut7QwE7PP382_DotkfX0gjXXpvNkcTyTKomxmsv1xyoRYFN82r_6pH75H9yeksiTXMG2BcrXcIvGy- -e6xCaNGQRhynvXYITQX6PAskFGwnhpprZMCoR6vAzu2Nxs23JWOgaXH8pWiPf6lDGNacHyGU05HOugs5YuvTSLgkAb3OlxfJ9-g5-AVKG6ELF0JqpA3CoUlA0eiipS0]--></g></svg>