<?xml version="1.0" encoding="us-ascii" standalone="no"?><svg xmlns="http://www.w3.org/2000/svg" xmlns:xlink="http://www.w3.org/1999/xlink" contentStyleType="text/css" height="389px" preserveAspectRatio="none" style="width:405px;height:389px;background:#FFFFFF;" version="1.1" viewBox="0 0 405 389" width="405px" zoomAndPan="magnify"><defs/><g><!--cluster HopFrame.Database--><g id="cluster_HopFrame.Database"><path d="M8.5,6.0137 L150.5,6.0137 A3.75,3.75 0 0 1 153,8.5137 L160,30.6348 L395.5,30.6348 A2.5,2.5 0 0 1 398,33.1348 L398,379.5137 A2.5,2.5 0 0 1 395.5,382.0137 L8.5,382.0137 A2.5,2.5 0 0 1 6,379.5137 L6,8.5137 A2.5,2.5 0 0 1 8.5,6.0137 " fill="none" style="stroke:#000000;stroke-width:1.5;"/><line style="stroke:#000000;stroke-width:1.5;" x1="6" x2="160" y1="30.6348" y2="30.6348"/><text fill="#000000" font-family="sans-serif" font-size="14" font-weight="bold" lengthAdjust="spacing" textLength="141" x="10" y="23.1211">HopFrame.Database</text></g><!--class UserEntry--><g id="elem_UserEntry"><rect codeLine="4" fill="#F1F1F1" height="141.1055" id="UserEntry" rx="2.5" ry="2.5" style="stroke:#181818;stroke-width:0.5;" width="159" x="218.5" y="43.0137"/><ellipse cx="262.75" cy="59.0137" fill="#ADD1B2" rx="11" ry="11" style="stroke:#181818;stroke-width:1.0;"/><path d="M265.5156,54.8887 Q265.6719,54.6699 265.8594,54.5605 Q266.0469,54.4512 266.2656,54.4512 Q266.6406,54.4512 266.875,54.7168 Q267.1094,54.9668 267.1094,55.5762 L267.1094,57.0293 Q267.1094,57.6387 266.875,57.9043 Q266.6406,58.1699 266.2656,58.1699 Q265.9219,58.1699 265.7188,57.9668 Q265.5156,57.7793 265.4063,57.2637 Q265.3594,56.9043 265.1719,56.7168 Q264.8438,56.3418 264.2344,56.123 Q263.625,55.9043 263,55.9043 Q262.2344,55.9043 261.5938,56.2324 Q260.9688,56.5605 260.4688,57.3105 Q259.9844,58.0605 259.9844,59.0918 L259.9844,60.1855 Q259.9844,61.4199 260.875,62.248 Q261.7656,63.0605 263.3594,63.0605 Q264.2969,63.0605 264.9531,62.8105 Q265.3438,62.6543 265.7656,62.2168 Q266.0313,61.9512 266.1719,61.873 Q266.3281,61.7949 266.5313,61.7949 Q266.8594,61.7949 267.1094,62.0605 Q267.375,62.3105 267.375,62.6543 Q267.375,62.998 267.0313,63.4043 Q266.5313,63.9824 265.7344,64.3105 Q264.6563,64.7637 263.3594,64.7637 Q261.8438,64.7637 260.6406,64.1387 Q259.6563,63.6387 258.9688,62.5762 Q258.2813,61.498 258.2813,60.2168 L258.2813,59.0605 Q258.2813,57.7324 258.8906,56.5918 Q259.5156,55.4355 260.6094,54.8262 Q261.7031,54.2012 262.9375,54.2012 Q263.6719,54.2012 264.3125,54.373 Q264.9688,54.5293 265.5156,54.8887 Z " fill="#000000"/><text fill="#000000" font-family="sans-serif" font-size="14" lengthAdjust="spacing" textLength="62" x="283.25" y="64.8105">UserEntry</text><line style="stroke:#181818;stroke-width:0.5;" x1="219.5" x2="376.5" y1="75.0137" y2="75.0137"/><ellipse cx="229.5" cy="89.8242" fill="none" rx="3" ry="3" style="stroke:#038048;stroke-width:1.0;"/><text fill="#000000" font-family="sans-serif" font-size="14" lengthAdjust="spacing" textLength="54" x="238.5" y="94.1211">Id: string</text><ellipse cx="229.5" cy="108.4453" fill="none" rx="3" ry="3" style="stroke:#038048;stroke-width:1.0;"/><text fill="#000000" font-family="sans-serif" font-size="14" lengthAdjust="spacing" textLength="107" x="238.5" y="112.7422">Username: string</text><ellipse cx="229.5" cy="127.0664" fill="none" rx="3" ry="3" style="stroke:#038048;stroke-width:1.0;"/><text fill="#000000" font-family="sans-serif" font-size="14" lengthAdjust="spacing" textLength="77" x="238.5" y="131.3633">Email: string</text><ellipse cx="229.5" cy="145.6875" fill="none" rx="3" ry="3" style="stroke:#038048;stroke-width:1.0;"/><text fill="#000000" font-family="sans-serif" font-size="14" lengthAdjust="spacing" textLength="104" x="238.5" y="149.9844">Password: string</text><ellipse cx="229.5" cy="164.3086" fill="none" rx="3" ry="3" style="stroke:#038048;stroke-width:1.0;"/><text fill="#000000" font-family="sans-serif" font-size="14" lengthAdjust="spacing" textLength="133" x="238.5" y="168.6055">CreatedAt: DateTime</text><line style="stroke:#181818;stroke-width:0.5;" x1="219.5" x2="376.5" y1="176.1191" y2="176.1191"/></g><!--class TokenEntry--><g id="elem_TokenEntry"><rect codeLine="12" fill="#F1F1F1" height="122.4844" id="TokenEntry" rx="2.5" ry="2.5" style="stroke:#181818;stroke-width:0.5;" width="159" x="22.5" y="244.0137"/><ellipse cx="61.8" cy="260.0137" fill="#ADD1B2" rx="11" ry="11" style="stroke:#181818;stroke-width:1.0;"/><path d="M64.5656,255.8887 Q64.7219,255.6699 64.9094,255.5605 Q65.0969,255.4512 65.3156,255.4512 Q65.6906,255.4512 65.925,255.7168 Q66.1594,255.9668 66.1594,256.5762 L66.1594,258.0293 Q66.1594,258.6387 65.925,258.9043 Q65.6906,259.1699 65.3156,259.1699 Q64.9719,259.1699 64.7688,258.9668 Q64.5656,258.7793 64.4563,258.2637 Q64.4094,257.9043 64.2219,257.7168 Q63.8938,257.3418 63.2844,257.123 Q62.675,256.9043 62.05,256.9043 Q61.2844,256.9043 60.6438,257.2324 Q60.0188,257.5605 59.5188,258.3105 Q59.0344,259.0605 59.0344,260.0918 L59.0344,261.1855 Q59.0344,262.4199 59.925,263.248 Q60.8156,264.0605 62.4094,264.0605 Q63.3469,264.0605 64.0031,263.8105 Q64.3938,263.6543 64.8156,263.2168 Q65.0813,262.9512 65.2219,262.873 Q65.3781,262.7949 65.5813,262.7949 Q65.9094,262.7949 66.1594,263.0605 Q66.425,263.3105 66.425,263.6543 Q66.425,263.998 66.0813,264.4043 Q65.5813,264.9824 64.7844,265.3105 Q63.7063,265.7637 62.4094,265.7637 Q60.8938,265.7637 59.6906,265.1387 Q58.7063,264.6387 58.0188,263.5762 Q57.3313,262.498 57.3313,261.2168 L57.3313,260.0605 Q57.3313,258.7324 57.9406,257.5918 Q58.5656,256.4355 59.6594,255.8262 Q60.7531,255.2012 61.9875,255.2012 Q62.7219,255.2012 63.3625,255.373 Q64.0188,255.5293 64.5656,255.8887 Z " fill="#000000"/><text fill="#000000" font-family="sans-serif" font-size="14" lengthAdjust="spacing" textLength="73" x="81.2" y="265.8105">TokenEntry</text><line style="stroke:#181818;stroke-width:0.5;" x1="23.5" x2="180.5" y1="276.0137" y2="276.0137"/><ellipse cx="33.5" cy="290.8242" fill="none" rx="3" ry="3" style="stroke:#038048;stroke-width:1.0;"/><text fill="#000000" font-family="sans-serif" font-size="14" lengthAdjust="spacing" textLength="55" x="42.5" y="295.1211">Type: int</text><ellipse cx="33.5" cy="309.4453" fill="none" rx="3" ry="3" style="stroke:#038048;stroke-width:1.0;"/><text fill="#000000" font-family="sans-serif" font-size="14" lengthAdjust="spacing" textLength="83" x="42.5" y="313.7422">Token: string</text><ellipse cx="33.5" cy="328.0664" fill="none" rx="3" ry="3" style="stroke:#038048;stroke-width:1.0;"/><text fill="#000000" font-family="sans-serif" font-size="14" lengthAdjust="spacing" textLength="83" x="42.5" y="332.3633">UserId: string</text><ellipse cx="33.5" cy="346.6875" fill="none" rx="3" ry="3" style="stroke:#038048;stroke-width:1.0;"/><text fill="#000000" font-family="sans-serif" font-size="14" lengthAdjust="spacing" textLength="133" x="42.5" y="350.9844">CreatedAt: DateTime</text><line style="stroke:#181818;stroke-width:0.5;" x1="23.5" x2="180.5" y1="358.498" y2="358.498"/></g><!--class PermissionEntry--><g id="elem_PermissionEntry"><rect codeLine="19" fill="#F1F1F1" height="122.4844" id="PermissionEntry" rx="2.5" ry="2.5" style="stroke:#181818;stroke-width:0.5;" width="165" x="216.5" y="244.0137"/><ellipse cx="245.45" cy="260.0137" fill="#ADD1B2" rx="11" ry="11" style="stroke:#181818;stroke-width:1.0;"/><path d="M248.2156,255.8887 Q248.3719,255.6699 248.5594,255.5605 Q248.7469,255.4512 248.9656,255.4512 Q249.3406,255.4512 249.575,255.7168 Q249.8094,255.9668 249.8094,256.5762 L249.8094,258.0293 Q249.8094,258.6387 249.575,258.9043 Q249.3406,259.1699 248.9656,259.1699 Q248.6219,259.1699 248.4188,258.9668 Q248.2156,258.7793 248.1063,258.2637 Q248.0594,257.9043 247.8719,257.7168 Q247.5438,257.3418 246.9344,257.123 Q246.325,256.9043 245.7,256.9043 Q244.9344,256.9043 244.2938,257.2324 Q243.6688,257.5605 243.1688,258.3105 Q242.6844,259.0605 242.6844,260.0918 L242.6844,261.1855 Q242.6844,262.4199 243.575,263.248 Q244.4656,264.0605 246.0594,264.0605 Q246.9969,264.0605 247.6531,263.8105 Q248.0438,263.6543 248.4656,263.2168 Q248.7313,262.9512 248.8719,262.873 Q249.0281,262.7949 249.2313,262.7949 Q249.5594,262.7949 249.8094,263.0605 Q250.075,263.3105 250.075,263.6543 Q250.075,263.998 249.7313,264.4043 Q249.2313,264.9824 248.4344,265.3105 Q247.3563,265.7637 246.0594,265.7637 Q244.5438,265.7637 243.3406,265.1387 Q242.3563,264.6387 241.6688,263.5762 Q240.9813,262.498 240.9813,261.2168 L240.9813,260.0605 Q240.9813,258.7324 241.5906,257.5918 Q242.2156,256.4355 243.3094,255.8262 Q244.4031,255.2012 245.6375,255.2012 Q246.3719,255.2012 247.0125,255.373 Q247.6688,255.5293 248.2156,255.8887 Z " fill="#000000"/><text fill="#000000" font-family="sans-serif" font-size="14" lengthAdjust="spacing" textLength="102" x="262.55" y="265.8105">PermissionEntry</text><line style="stroke:#181818;stroke-width:0.5;" x1="217.5" x2="380.5" y1="276.0137" y2="276.0137"/><ellipse cx="227.5" cy="290.8242" fill="none" rx="3" ry="3" style="stroke:#038048;stroke-width:1.0;"/><text fill="#000000" font-family="sans-serif" font-size="14" lengthAdjust="spacing" textLength="92" x="236.5" y="295.1211">RecordId: long</text><ellipse cx="227.5" cy="309.4453" fill="none" rx="3" ry="3" style="stroke:#038048;stroke-width:1.0;"/><text fill="#000000" font-family="sans-serif" font-size="14" lengthAdjust="spacing" textLength="139" x="236.5" y="313.7422">PermissionText: string</text><ellipse cx="227.5" cy="328.0664" fill="none" rx="3" ry="3" style="stroke:#038048;stroke-width:1.0;"/><text fill="#000000" font-family="sans-serif" font-size="14" lengthAdjust="spacing" textLength="83" x="236.5" y="332.3633">UserId: string</text><ellipse cx="227.5" cy="346.6875" fill="none" rx="3" ry="3" style="stroke:#038048;stroke-width:1.0;"/><text fill="#000000" font-family="sans-serif" font-size="14" lengthAdjust="spacing" textLength="134" x="236.5" y="350.9844">GrantedAt: DateTime</text><line style="stroke:#181818;stroke-width:0.5;" x1="217.5" x2="380.5" y1="358.498" y2="358.498"/></g><!--class GroupEntry--><g id="elem_GroupEntry"><rect codeLine="26" fill="#F1F1F1" height="122.4844" id="GroupEntry" rx="2.5" ry="2.5" style="stroke:#181818;stroke-width:0.5;" width="159" x="23.5" y="52.5137"/><ellipse cx="62.8" cy="68.5137" fill="#ADD1B2" rx="11" ry="11" style="stroke:#181818;stroke-width:1.0;"/><path d="M65.5656,64.3887 Q65.7219,64.1699 65.9094,64.0605 Q66.0969,63.9512 66.3156,63.9512 Q66.6906,63.9512 66.925,64.2168 Q67.1594,64.4668 67.1594,65.0762 L67.1594,66.5293 Q67.1594,67.1387 66.925,67.4043 Q66.6906,67.6699 66.3156,67.6699 Q65.9719,67.6699 65.7688,67.4668 Q65.5656,67.2793 65.4563,66.7637 Q65.4094,66.4043 65.2219,66.2168 Q64.8938,65.8418 64.2844,65.623 Q63.675,65.4043 63.05,65.4043 Q62.2844,65.4043 61.6438,65.7324 Q61.0188,66.0605 60.5188,66.8105 Q60.0344,67.5605 60.0344,68.5918 L60.0344,69.6855 Q60.0344,70.9199 60.925,71.748 Q61.8156,72.5605 63.4094,72.5605 Q64.3469,72.5605 65.0031,72.3105 Q65.3938,72.1543 65.8156,71.7168 Q66.0813,71.4512 66.2219,71.373 Q66.3781,71.2949 66.5813,71.2949 Q66.9094,71.2949 67.1594,71.5605 Q67.425,71.8105 67.425,72.1543 Q67.425,72.498 67.0813,72.9043 Q66.5813,73.4824 65.7844,73.8105 Q64.7063,74.2637 63.4094,74.2637 Q61.8938,74.2637 60.6906,73.6387 Q59.7063,73.1387 59.0188,72.0762 Q58.3313,70.998 58.3313,69.7168 L58.3313,68.5605 Q58.3313,67.2324 58.9406,66.0918 Q59.5656,64.9355 60.6594,64.3262 Q61.7531,63.7012 62.9875,63.7012 Q63.7219,63.7012 64.3625,63.873 Q65.0188,64.0293 65.5656,64.3887 Z " fill="#000000"/><text fill="#000000" font-family="sans-serif" font-size="14" lengthAdjust="spacing" textLength="73" x="82.2" y="74.3105">GroupEntry</text><line style="stroke:#181818;stroke-width:0.5;" x1="24.5" x2="181.5" y1="84.5137" y2="84.5137"/><ellipse cx="34.5" cy="99.3242" fill="none" rx="3" ry="3" style="stroke:#038048;stroke-width:1.0;"/><text fill="#000000" font-family="sans-serif" font-size="14" lengthAdjust="spacing" textLength="79" x="43.5" y="103.6211">Name: string</text><ellipse cx="34.5" cy="117.9453" fill="none" rx="3" ry="3" style="stroke:#038048;stroke-width:1.0;"/><text fill="#000000" font-family="sans-serif" font-size="14" lengthAdjust="spacing" textLength="80" x="43.5" y="122.2422">Default: bool</text><ellipse cx="34.5" cy="136.5664" fill="none" rx="3" ry="3" style="stroke:#038048;stroke-width:1.0;"/><text fill="#000000" font-family="sans-serif" font-size="14" lengthAdjust="spacing" textLength="114" x="43.5" y="140.8633">Description: string</text><ellipse cx="34.5" cy="155.1875" fill="none" rx="3" ry="3" style="stroke:#038048;stroke-width:1.0;"/><text fill="#000000" font-family="sans-serif" font-size="14" lengthAdjust="spacing" textLength="133" x="43.5" y="159.4844">CreatedAt: DateTime</text><line style="stroke:#181818;stroke-width:0.5;" x1="24.5" x2="181.5" y1="166.998" y2="166.998"/></g><!--reverse link UserEntry to TokenEntry--><g id="link_UserEntry_TokenEntry"><path codeLine="34" d="M217.2228,192.6146 C197.0328,212.1346 183.89,224.8437 164.32,243.7637 " fill="none" id="UserEntry-backto-TokenEntry" style="stroke:#181818;stroke-width:1.0;"/><polygon fill="#181818" points="225.85,184.2737,218.7561,185.5684,217.2228,192.6146,224.3167,191.3199,225.85,184.2737" style="stroke:#181818;stroke-width:1.0;"/></g><!--reverse link UserEntry to PermissionEntry--><g id="link_UserEntry_PermissionEntry"><path codeLine="35" d="M298.4315,196.2735 C298.5315,215.7935 298.58,224.8437 298.68,243.7637 " fill="none" id="UserEntry-backto-PermissionEntry" style="stroke:#181818;stroke-width:1.0;"/><polygon fill="#181818" points="298.37,184.2737,294.4008,190.2941,298.4315,196.2735,302.4007,190.2531,298.37,184.2737" style="stroke:#181818;stroke-width:1.0;"/></g><!--SRC=[fP91RW8n34NtEKNML700TbMXb4s5O3Y06GoAoCIHRTGYnDr9488fcGMeNaJAj_FrR4TGRO069KAD2up0eCGsK41ZRWdxHV6Jqsqm0eKL2DgZiIbg3o9sASZZe7ougZdUfkkX5MKNjdSj5sRJCZDkmFbIdYNx7-8Egmz6K5o_wz0c9gnSWvVawNAsu2hQOIZegaDC52veIyg5tSpJ_m3Ca1idugYac6ETcilkdlwqVNjIuQy-ppHX24ynJPZsiS3vxbpD23UmzyboHUJRijJieYR8LuPpCkR-NNhzVci_3uc7kPap]--></g></svg>