<?xml version="1.0" encoding="us-ascii" standalone="no"?><svg xmlns="http://www.w3.org/2000/svg" xmlns:xlink="http://www.w3.org/1999/xlink" contentStyleType="text/css" height="445px" preserveAspectRatio="none" style="width:441px;height:445px;background:#FFFFFF;" version="1.1" viewBox="0 0 441 445" width="441px" zoomAndPan="magnify"><defs/><g><!--cluster HopFrame.Database--><g id="cluster_HopFrame.Database"><path d="M8.5,6.0137 L150.5,6.0137 A3.75,3.75 0 0 1 153,8.5137 L160,30.6348 L431.5,30.6348 A2.5,2.5 0 0 1 434,33.1348 L434,435.5137 A2.5,2.5 0 0 1 431.5,438.0137 L8.5,438.0137 A2.5,2.5 0 0 1 6,435.5137 L6,8.5137 A2.5,2.5 0 0 1 8.5,6.0137 " fill="none" style="stroke:#000000;stroke-width:1.5;"/><line style="stroke:#000000;stroke-width:1.5;" x1="6" x2="160" y1="30.6348" y2="30.6348"/><text fill="#000000" font-family="sans-serif" font-size="14" font-weight="bold" lengthAdjust="spacing" textLength="141" x="10" y="23.1211">HopFrame.Database</text></g><!--class UserEntry--><g id="elem_UserEntry"><rect codeLine="4" fill="#F1F1F1" height="141.1055" id="UserEntry" rx="2.5" ry="2.5" style="stroke:#181818;stroke-width:0.5;" width="159" x="245.5" y="43.0137"/><ellipse cx="289.75" cy="59.0137" fill="#ADD1B2" rx="11" ry="11" style="stroke:#181818;stroke-width:1.0;"/><path d="M292.5156,54.8887 Q292.6719,54.6699 292.8594,54.5605 Q293.0469,54.4512 293.2656,54.4512 Q293.6406,54.4512 293.875,54.7168 Q294.1094,54.9668 294.1094,55.5762 L294.1094,57.0293 Q294.1094,57.6387 293.875,57.9043 Q293.6406,58.1699 293.2656,58.1699 Q292.9219,58.1699 292.7188,57.9668 Q292.5156,57.7793 292.4063,57.2637 Q292.3594,56.9043 292.1719,56.7168 Q291.8438,56.3418 291.2344,56.123 Q290.625,55.9043 290,55.9043 Q289.2344,55.9043 288.5938,56.2324 Q287.9688,56.5605 287.4688,57.3105 Q286.9844,58.0605 286.9844,59.0918 L286.9844,60.1855 Q286.9844,61.4199 287.875,62.248 Q288.7656,63.0605 290.3594,63.0605 Q291.2969,63.0605 291.9531,62.8105 Q292.3438,62.6543 292.7656,62.2168 Q293.0313,61.9512 293.1719,61.873 Q293.3281,61.7949 293.5313,61.7949 Q293.8594,61.7949 294.1094,62.0605 Q294.375,62.3105 294.375,62.6543 Q294.375,62.998 294.0313,63.4043 Q293.5313,63.9824 292.7344,64.3105 Q291.6563,64.7637 290.3594,64.7637 Q288.8438,64.7637 287.6406,64.1387 Q286.6563,63.6387 285.9688,62.5762 Q285.2813,61.498 285.2813,60.2168 L285.2813,59.0605 Q285.2813,57.7324 285.8906,56.5918 Q286.5156,55.4355 287.6094,54.8262 Q288.7031,54.2012 289.9375,54.2012 Q290.6719,54.2012 291.3125,54.373 Q291.9688,54.5293 292.5156,54.8887 Z " fill="#000000"/><text fill="#000000" font-family="sans-serif" font-size="14" lengthAdjust="spacing" textLength="62" x="310.25" y="64.8105">UserEntry</text><line style="stroke:#181818;stroke-width:0.5;" x1="246.5" x2="403.5" y1="75.0137" y2="75.0137"/><ellipse cx="256.5" cy="89.8242" fill="none" rx="3" ry="3" style="stroke:#038048;stroke-width:1.0;"/><text fill="#000000" font-family="sans-serif" font-size="14" lengthAdjust="spacing" textLength="54" x="265.5" y="94.1211">Id: string</text><ellipse cx="256.5" cy="108.4453" fill="none" rx="3" ry="3" style="stroke:#038048;stroke-width:1.0;"/><text fill="#000000" font-family="sans-serif" font-size="14" lengthAdjust="spacing" textLength="107" x="265.5" y="112.7422">Username: string</text><ellipse cx="256.5" cy="127.0664" fill="none" rx="3" ry="3" style="stroke:#038048;stroke-width:1.0;"/><text fill="#000000" font-family="sans-serif" font-size="14" lengthAdjust="spacing" textLength="77" x="265.5" y="131.3633">Email: string</text><ellipse cx="256.5" cy="145.6875" fill="none" rx="3" ry="3" style="stroke:#038048;stroke-width:1.0;"/><text fill="#000000" font-family="sans-serif" font-size="14" lengthAdjust="spacing" textLength="104" x="265.5" y="149.9844">Password: string</text><ellipse cx="256.5" cy="164.3086" fill="none" rx="3" ry="3" style="stroke:#038048;stroke-width:1.0;"/><text fill="#000000" font-family="sans-serif" font-size="14" lengthAdjust="spacing" textLength="133" x="265.5" y="168.6055">CreatedAt: DateTime</text><line style="stroke:#181818;stroke-width:0.5;" x1="246.5" x2="403.5" y1="176.1191" y2="176.1191"/></g><!--class TokenEntry--><g id="elem_TokenEntry"><rect codeLine="12" fill="#F1F1F1" height="178.3477" id="TokenEntry" rx="2.5" ry="2.5" style="stroke:#181818;stroke-width:0.5;" width="195" x="22.5" y="244.0137"/><ellipse cx="79.25" cy="260.0137" fill="#ADD1B2" rx="11" ry="11" style="stroke:#181818;stroke-width:1.0;"/><path d="M82.0156,255.8887 Q82.1719,255.6699 82.3594,255.5605 Q82.5469,255.4512 82.7656,255.4512 Q83.1406,255.4512 83.375,255.7168 Q83.6094,255.9668 83.6094,256.5762 L83.6094,258.0293 Q83.6094,258.6387 83.375,258.9043 Q83.1406,259.1699 82.7656,259.1699 Q82.4219,259.1699 82.2188,258.9668 Q82.0156,258.7793 81.9063,258.2637 Q81.8594,257.9043 81.6719,257.7168 Q81.3438,257.3418 80.7344,257.123 Q80.125,256.9043 79.5,256.9043 Q78.7344,256.9043 78.0938,257.2324 Q77.4688,257.5605 76.9688,258.3105 Q76.4844,259.0605 76.4844,260.0918 L76.4844,261.1855 Q76.4844,262.4199 77.375,263.248 Q78.2656,264.0605 79.8594,264.0605 Q80.7969,264.0605 81.4531,263.8105 Q81.8438,263.6543 82.2656,263.2168 Q82.5313,262.9512 82.6719,262.873 Q82.8281,262.7949 83.0313,262.7949 Q83.3594,262.7949 83.6094,263.0605 Q83.875,263.3105 83.875,263.6543 Q83.875,263.998 83.5313,264.4043 Q83.0313,264.9824 82.2344,265.3105 Q81.1563,265.7637 79.8594,265.7637 Q78.3438,265.7637 77.1406,265.1387 Q76.1563,264.6387 75.4688,263.5762 Q74.7813,262.498 74.7813,261.2168 L74.7813,260.0605 Q74.7813,258.7324 75.3906,257.5918 Q76.0156,256.4355 77.1094,255.8262 Q78.2031,255.2012 79.4375,255.2012 Q80.1719,255.2012 80.8125,255.373 Q81.4688,255.5293 82.0156,255.8887 Z " fill="#000000"/><text fill="#000000" font-family="sans-serif" font-size="14" lengthAdjust="spacing" textLength="73" x="99.75" y="265.8105">TokenEntry</text><line style="stroke:#181818;stroke-width:0.5;" x1="23.5" x2="216.5" y1="276.0137" y2="276.0137"/><ellipse cx="33.5" cy="290.8242" fill="none" rx="3" ry="3" style="stroke:#038048;stroke-width:1.0;"/><text fill="#000000" font-family="sans-serif" font-size="14" lengthAdjust="spacing" text-decoration="underline" textLength="169" x="42.5" y="295.1211">RefreshTokenType: int = 0</text><ellipse cx="33.5" cy="309.4453" fill="none" rx="3" ry="3" style="stroke:#038048;stroke-width:1.0;"/><text fill="#000000" font-family="sans-serif" font-size="14" lengthAdjust="spacing" text-decoration="underline" textLength="164" x="42.5" y="313.7422">AccessTokenType: int = 1</text><text fill="#000000" font-family="sans-serif" font-size="14" lengthAdjust="spacing" textLength="4" x="42.5" y="332.3633">&#160;</text><ellipse cx="33.5" cy="346.6875" fill="none" rx="3" ry="3" style="stroke:#038048;stroke-width:1.0;"/><text fill="#000000" font-family="sans-serif" font-size="14" lengthAdjust="spacing" textLength="55" x="42.5" y="350.9844">Type: int</text><ellipse cx="33.5" cy="365.3086" fill="none" rx="3" ry="3" style="stroke:#038048;stroke-width:1.0;"/><text fill="#000000" font-family="sans-serif" font-size="14" lengthAdjust="spacing" textLength="83" x="42.5" y="369.6055">Token: string</text><ellipse cx="33.5" cy="383.9297" fill="none" rx="3" ry="3" style="stroke:#038048;stroke-width:1.0;"/><text fill="#000000" font-family="sans-serif" font-size="14" lengthAdjust="spacing" textLength="83" x="42.5" y="388.2266">UserId: string</text><ellipse cx="33.5" cy="402.5508" fill="none" rx="3" ry="3" style="stroke:#038048;stroke-width:1.0;"/><text fill="#000000" font-family="sans-serif" font-size="14" lengthAdjust="spacing" textLength="133" x="42.5" y="406.8477">CreatedAt: DateTime</text><line style="stroke:#181818;stroke-width:0.5;" x1="23.5" x2="216.5" y1="414.3613" y2="414.3613"/></g><!--class PermissionEntry--><g id="elem_PermissionEntry"><rect codeLine="22" fill="#F1F1F1" height="122.4844" id="PermissionEntry" rx="2.5" ry="2.5" style="stroke:#181818;stroke-width:0.5;" width="165" x="252.5" y="272.0137"/><ellipse cx="281.45" cy="288.0137" fill="#ADD1B2" rx="11" ry="11" style="stroke:#181818;stroke-width:1.0;"/><path d="M284.2156,283.8887 Q284.3719,283.6699 284.5594,283.5605 Q284.7469,283.4512 284.9656,283.4512 Q285.3406,283.4512 285.575,283.7168 Q285.8094,283.9668 285.8094,284.5762 L285.8094,286.0293 Q285.8094,286.6387 285.575,286.9043 Q285.3406,287.1699 284.9656,287.1699 Q284.6219,287.1699 284.4188,286.9668 Q284.2156,286.7793 284.1063,286.2637 Q284.0594,285.9043 283.8719,285.7168 Q283.5438,285.3418 282.9344,285.123 Q282.325,284.9043 281.7,284.9043 Q280.9344,284.9043 280.2938,285.2324 Q279.6688,285.5605 279.1688,286.3105 Q278.6844,287.0605 278.6844,288.0918 L278.6844,289.1855 Q278.6844,290.4199 279.575,291.248 Q280.4656,292.0605 282.0594,292.0605 Q282.9969,292.0605 283.6531,291.8105 Q284.0438,291.6543 284.4656,291.2168 Q284.7313,290.9512 284.8719,290.873 Q285.0281,290.7949 285.2313,290.7949 Q285.5594,290.7949 285.8094,291.0605 Q286.075,291.3105 286.075,291.6543 Q286.075,291.998 285.7313,292.4043 Q285.2313,292.9824 284.4344,293.3105 Q283.3563,293.7637 282.0594,293.7637 Q280.5438,293.7637 279.3406,293.1387 Q278.3563,292.6387 277.6688,291.5762 Q276.9813,290.498 276.9813,289.2168 L276.9813,288.0605 Q276.9813,286.7324 277.5906,285.5918 Q278.2156,284.4355 279.3094,283.8262 Q280.4031,283.2012 281.6375,283.2012 Q282.3719,283.2012 283.0125,283.373 Q283.6688,283.5293 284.2156,283.8887 Z " fill="#000000"/><text fill="#000000" font-family="sans-serif" font-size="14" lengthAdjust="spacing" textLength="102" x="298.55" y="293.8105">PermissionEntry</text><line style="stroke:#181818;stroke-width:0.5;" x1="253.5" x2="416.5" y1="304.0137" y2="304.0137"/><ellipse cx="263.5" cy="318.8242" fill="none" rx="3" ry="3" style="stroke:#038048;stroke-width:1.0;"/><text fill="#000000" font-family="sans-serif" font-size="14" lengthAdjust="spacing" textLength="92" x="272.5" y="323.1211">RecordId: long</text><ellipse cx="263.5" cy="337.4453" fill="none" rx="3" ry="3" style="stroke:#038048;stroke-width:1.0;"/><text fill="#000000" font-family="sans-serif" font-size="14" lengthAdjust="spacing" textLength="139" x="272.5" y="341.7422">PermissionText: string</text><ellipse cx="263.5" cy="356.0664" fill="none" rx="3" ry="3" style="stroke:#038048;stroke-width:1.0;"/><text fill="#000000" font-family="sans-serif" font-size="14" lengthAdjust="spacing" textLength="83" x="272.5" y="360.3633">UserId: string</text><ellipse cx="263.5" cy="374.6875" fill="none" rx="3" ry="3" style="stroke:#038048;stroke-width:1.0;"/><text fill="#000000" font-family="sans-serif" font-size="14" lengthAdjust="spacing" textLength="134" x="272.5" y="378.9844">GrantedAt: DateTime</text><line style="stroke:#181818;stroke-width:0.5;" x1="253.5" x2="416.5" y1="386.498" y2="386.498"/></g><!--class GroupEntry--><g id="elem_GroupEntry"><rect codeLine="29" fill="#F1F1F1" height="122.4844" id="GroupEntry" rx="2.5" ry="2.5" style="stroke:#181818;stroke-width:0.5;" width="159" x="41.5" y="52.5137"/><ellipse cx="80.8" cy="68.5137" fill="#ADD1B2" rx="11" ry="11" style="stroke:#181818;stroke-width:1.0;"/><path d="M83.5656,64.3887 Q83.7219,64.1699 83.9094,64.0605 Q84.0969,63.9512 84.3156,63.9512 Q84.6906,63.9512 84.925,64.2168 Q85.1594,64.4668 85.1594,65.0762 L85.1594,66.5293 Q85.1594,67.1387 84.925,67.4043 Q84.6906,67.6699 84.3156,67.6699 Q83.9719,67.6699 83.7688,67.4668 Q83.5656,67.2793 83.4563,66.7637 Q83.4094,66.4043 83.2219,66.2168 Q82.8938,65.8418 82.2844,65.623 Q81.675,65.4043 81.05,65.4043 Q80.2844,65.4043 79.6438,65.7324 Q79.0188,66.0605 78.5188,66.8105 Q78.0344,67.5605 78.0344,68.5918 L78.0344,69.6855 Q78.0344,70.9199 78.925,71.748 Q79.8156,72.5605 81.4094,72.5605 Q82.3469,72.5605 83.0031,72.3105 Q83.3938,72.1543 83.8156,71.7168 Q84.0813,71.4512 84.2219,71.373 Q84.3781,71.2949 84.5813,71.2949 Q84.9094,71.2949 85.1594,71.5605 Q85.425,71.8105 85.425,72.1543 Q85.425,72.498 85.0813,72.9043 Q84.5813,73.4824 83.7844,73.8105 Q82.7063,74.2637 81.4094,74.2637 Q79.8938,74.2637 78.6906,73.6387 Q77.7063,73.1387 77.0188,72.0762 Q76.3313,70.998 76.3313,69.7168 L76.3313,68.5605 Q76.3313,67.2324 76.9406,66.0918 Q77.5656,64.9355 78.6594,64.3262 Q79.7531,63.7012 80.9875,63.7012 Q81.7219,63.7012 82.3625,63.873 Q83.0188,64.0293 83.5656,64.3887 Z " fill="#000000"/><text fill="#000000" font-family="sans-serif" font-size="14" lengthAdjust="spacing" textLength="73" x="100.2" y="74.3105">GroupEntry</text><line style="stroke:#181818;stroke-width:0.5;" x1="42.5" x2="199.5" y1="84.5137" y2="84.5137"/><ellipse cx="52.5" cy="99.3242" fill="none" rx="3" ry="3" style="stroke:#038048;stroke-width:1.0;"/><text fill="#000000" font-family="sans-serif" font-size="14" lengthAdjust="spacing" textLength="79" x="61.5" y="103.6211">Name: string</text><ellipse cx="52.5" cy="117.9453" fill="none" rx="3" ry="3" style="stroke:#038048;stroke-width:1.0;"/><text fill="#000000" font-family="sans-serif" font-size="14" lengthAdjust="spacing" textLength="80" x="61.5" y="122.2422">Default: bool</text><ellipse cx="52.5" cy="136.5664" fill="none" rx="3" ry="3" style="stroke:#038048;stroke-width:1.0;"/><text fill="#000000" font-family="sans-serif" font-size="14" lengthAdjust="spacing" textLength="114" x="61.5" y="140.8633">Description: string</text><ellipse cx="52.5" cy="155.1875" fill="none" rx="3" ry="3" style="stroke:#038048;stroke-width:1.0;"/><text fill="#000000" font-family="sans-serif" font-size="14" lengthAdjust="spacing" textLength="133" x="61.5" y="159.4844">CreatedAt: DateTime</text><line style="stroke:#181818;stroke-width:0.5;" x1="42.5" x2="199.5" y1="166.998" y2="166.998"/></g><!--reverse link UserEntry to TokenEntry--><g id="link_UserEntry_TokenEntry"><path codeLine="37" d="M251.0587,192.9656 C233.1387,211.9756 221.72,224.0837 202.98,243.9737 " fill="none" id="UserEntry-backto-TokenEntry" style="stroke:#181818;stroke-width:1.0;"/><polygon fill="#181818" points="259.29,184.2337,252.2637,185.8559,251.0587,192.9656,258.085,191.3434,259.29,184.2337" style="stroke:#181818;stroke-width:1.0;"/></g><!--reverse link UserEntry to PermissionEntry--><g id="link_UserEntry_PermissionEntry"><path codeLine="38" d="M328.7584,196.2211 C330.0484,224.4211 330.98,244.6837 332.23,271.8337 " fill="none" id="UserEntry-backto-PermissionEntry" style="stroke:#181818;stroke-width:1.0;"/><polygon fill="#181818" points="328.21,184.2337,324.4884,190.4102,328.7584,196.2211,332.48,190.0446,328.21,184.2337" style="stroke:#181818;stroke-width:1.0;"/></g><!--SRC=[fL91JiCm4Bpx5NkcAe9h9GuLBQMNgYhX0Ljt2nQ9RUrk1LMLl-D4A0b93aNuOCapuz7is48A7WkIY9PUA2AZ1WOVF1dJ4F0SuXEdq-q25VSe11S3QTaSHU1LY9TU-Vo3LckoFin0b9r_Qx5AM9aEcMM1BX_2ssJ_6NZ4wf49bGvpdK7AH9ahg2RBUk-4oy87-NwwYoYgioLCTdHaalTQbPrZYkQymWFSZMZdrfB8G7hVIDju3T-1gdlZdQp_C-2Mk70YBWocJCFPL5xbdeTVjJPNClhIwpEj6FrLcLOSJd4GPpFwz0iwuYbFbliGyYuibbtK5F8lvPJ6jD_nPZhjl7-FwFLclW40]--></g></svg>